<svg width="64" height="64" viewBox="0 0 64 64" fill="none" xmlns="http://www.w3.org/2000/svg">
<path d="M41.09 26.98C40.24 26.04 38.82 25.57 36.76 25.57H36.52V25.53C36.52 23.85 36.52 21.77 32.76 21.77H31.24C27.48 21.77 27.48 23.86 27.48 25.53V25.58H27.24C25.17 25.58 23.76 26.05 22.91 26.99C21.92 28.09 21.95 29.57 22.05 30.58L22.06 30.65L22.1375 31.4633C22.1518 31.6131 22.2324 31.7484 22.3583 31.8307C22.5981 31.9877 22.9995 32.2464 23.24 32.38C23.38 32.47 23.53 32.55 23.68 32.63C25.39 33.57 27.27 34.2 29.18 34.51C29.27 35.45 29.68 36.55 31.87 36.55C34.06 36.55 34.49 35.46 34.56 34.49C36.6 34.16 38.57 33.45 40.35 32.41C40.41 32.38 40.45 32.35 40.5 32.32C40.8968 32.0958 41.3083 31.8195 41.6835 31.5489C41.7965 31.4673 41.8688 31.3413 41.8842 31.2028L41.9 31.06L41.95 30.59C41.96 30.53 41.96 30.48 41.97 30.41C42.05 29.4 42.03 28.02 41.09 26.98ZM33.09 33.83C33.09 34.89 33.09 35.05 31.86 35.05C30.63 35.05 30.63 34.86 30.63 33.84V32.58H33.09V33.83ZM28.91 25.57V25.53C28.91 23.83 28.91 23.2 31.24 23.2H32.76C35.09 23.2 35.09 23.84 35.09 25.53V25.58H28.91V25.57Z" fill="white"/>
<path d="M40.8733 33.7341C41.2269 33.5659 41.6342 33.8462 41.5988 34.2361L41.2398 38.19C41.0298 40.19 40.2098 42.23 35.8098 42.23H28.1898C23.7898 42.23 22.9698 40.19 22.7598 38.2L22.4191 34.4521C22.3841 34.0667 22.782 33.7867 23.1347 33.9463C24.2741 34.4618 26.3772 35.3764 27.6764 35.7166C27.8407 35.7597 27.9736 35.8773 28.0456 36.0311C28.6525 37.3292 29.969 38.02 31.8698 38.02C33.752 38.02 35.085 37.3026 35.694 36.0013C35.766 35.8474 35.8991 35.7298 36.0635 35.6865C37.443 35.3235 39.6816 34.3012 40.8733 33.7341Z" fill="white"/>
</svg>
