<svg width="64" height="64" viewBox="0 0 64 64" fill="none" xmlns="http://www.w3.org/2000/svg">
<path d="M40.0402 26.8201L34.2802 22.7901C32.7102 21.6901 30.3002 21.7501 28.7902 22.9201L23.7802 26.8301C22.7802 27.6101 21.9902 29.2101 21.9902 30.4701V37.3701C21.9902 39.9201 24.0602 42.0001 26.6102 42.0001H37.3902C39.9402 42.0001 42.0102 39.9301 42.0102 37.3801V30.6001C42.0102 29.2501 41.1402 27.5901 40.0402 26.8201ZM32.7502 38.0001C32.7502 38.4101 32.4102 38.7501 32.0002 38.7501C31.5902 38.7501 31.2502 38.4101 31.2502 38.0001V35.0001C31.2502 34.5901 31.5902 34.2501 32.0002 34.2501C32.4102 34.2501 32.7502 34.5901 32.7502 35.0001V38.0001Z" fill="#FFF"/>
</svg>
