<svg width="64" height="64" viewBox="0 0 64 64" fill="none" xmlns="http://www.w3.org/2000/svg">
<path d="M40.6201 28.45C39.5701 23.83 35.5401 21.75 32.0001 21.75C32.0001 21.75 32.0001 21.75 31.9901 21.75C28.4601 21.75 24.4201 23.82 23.3701 28.44C22.2001 33.6 25.3601 37.97 28.2201 40.72C29.2801 41.74 30.6401 42.25 32.0001 42.25C33.3601 42.25 34.7201 41.74 35.7701 40.72C38.6301 37.97 41.7901 33.61 40.6201 28.45ZM32.0001 33.46C30.2601 33.46 28.8501 32.05 28.8501 30.31C28.8501 28.57 30.2601 27.16 32.0001 27.16C33.7401 27.16 35.1501 28.57 35.1501 30.31C35.1501 32.05 33.7401 33.46 32.0001 33.46Z" fill="white"/>
</svg>
