<svg width="64" height="64" viewBox="0 0 64 64" fill="none" xmlns="http://www.w3.org/2000/svg">
<path d="M38.2413 23.3824L38.1618 27.6017C38.1505 28.1806 38.525 28.9487 39.0018 29.2938L41.8169 31.3868C43.6218 32.7227 43.3267 34.3592 41.1699 35.0271L37.5034 36.1515C36.8905 36.3408 36.2434 36.9976 36.0845 37.6099L35.2104 40.8828C34.518 43.4656 32.7926 43.7217 31.3623 41.4506L29.3645 38.2778C29.0012 37.6989 28.1385 37.2648 27.4575 37.2982L23.6661 37.4874C20.9531 37.621 20.1812 36.0847 21.952 34.0586L24.1996 31.4981C24.6196 31.0194 24.8126 30.1288 24.6196 29.5276L23.4618 25.9207C22.792 23.8055 23.9953 22.6365 26.1407 23.3268L29.4894 24.4066C30.0569 24.5847 30.9083 24.4623 31.385 24.1172L34.8813 21.6457C36.7769 20.321 38.2867 21.1002 38.2413 23.3824Z" fill="white"/>
</svg>
